Coordinates
version=1
nRows=6
nColumns=34
inDegrees=yes

Units are S.I. units (second, meters, Newtons, ...)
If the header above contains a line with 'inDegrees', this indicates whether rotational values are in degrees (yes) or radians (no).

endheader
time	pelvis_tilt	pelvis_list	pelvis_rotation	pelvis_tx	pelvis_ty	pelvis_tz	hip_flexion_r	hip_adduction_r	hip_rotation_r	knee_angle_r	ankle_angle_r	subtalar_angle_r	mtp_angle_r	hip_flexion_l	hip_adduction_l	hip_rotation_l	knee_angle_l	ankle_angle_l	subtalar_angle_l	mtp_angle_l	lumbar_extension	lumbar_bending	lumbar_rotation	arm_flex_r	arm_add_r	arm_rot_r	elbow_flex_r	pro_sup_r	arm_flex_l	arm_add_l	arm_rot_l	elbow_flex_l	pro_sup_l
      1.48333330	      1.45620729	      5.50017464	    -21.15122167	      0.17539469	      0.99676658	     -0.09049942	      0.68462432	     -4.88861305	    -12.51883429	      5.97037755	      9.96884400	     -1.67386203	      0.00000000	      6.28527052	     -4.08877750	     -9.51062076	     11.26921256	     10.35118426	     -4.77102564	      0.00000000	    -11.19706013	      0.08238868	      0.10791522	      3.29648343	    -13.20942624	     17.33908803	     19.42693863	    119.74817918	      2.85185248	    -10.35812712	     17.96456771	     21.51984657	    119.47999313
      1.50000000	      1.47465368	      5.47427229	    -21.19936538	      0.17627779	      0.99686828	     -0.09173786	      0.66892774	     -4.97094218	    -12.49828922	      6.02140150	      9.96876340	     -1.69694077	      0.00000000	      6.25630091	     -4.02176220	     -9.53650084	     11.33070658	     10.36830230	     -4.77586291	      0.00000000	    -11.12527838	      0.06343638	      0.02679925	      3.32900296	    -13.36089570	     17.34193092	     19.41073955	    119.74817918	      3.04699412	    -10.52989029	     17.93823399	     21.55058399	    119.46917777
      1.51666670	      1.74450542	      5.74430468	    -21.22041193	      0.17652194	      0.99711341	     -0.09379242	      0.74571175	     -5.53074006	    -12.37560267	      6.43724972	     10.05216319	     -2.03483643	      0.00000000	      6.32414253	     -3.55935547	     -9.65488323	     11.73821780	     10.49019100	     -4.70506503	      0.00000000	    -11.43777669	     -0.34246335	     -0.17029558	      3.55043282	    -13.50651429	     17.56206710	     19.57505704	    119.74817918	      3.52798363	    -10.69772172	     17.96866677	     21.66299002	    119.42327258
      1.53333330	      1.73208892	      5.68930694	    -21.29029559	      0.17775546	      0.99709241	     -0.09487039	      0.71703633	     -5.56546637	    -12.36471986	      6.46261934	     10.05299583	     -2.04374943	      0.00000000	      6.26344616	     -3.53135785	     -9.67087281	     11.76637552	     10.49755869	     -4.70757066	      0.00000000	    -11.30573504	     -0.35071188	     -0.26158149	      3.57882754	    -13.55780168	     17.56123197	     19.58222236	    119.74817918	      3.70186270	    -10.76116373	     17.95189569	     21.70878110	    119.41909055
      1.55000000	      1.95871341	      5.99799230	    -21.25674788	      0.17825561	      0.99720076	     -0.09704863	      0.83285912	     -6.15858769	    -12.12001684	      6.90273203	     10.14676531	     -2.44636982	      0.00000000	      6.27311840	     -3.01253704	     -9.88078742	     11.94874139	     10.69686408	     -4.56658958	      0.00000000	    -11.51801540	     -0.81168508	     -0.64305966	      3.87394565	    -13.76044536	     17.77911660	     19.92967046	    119.74817918	      4.10428593	    -10.98915634	     17.95923200	     21.71003497	    119.37196289
      1.56666670	      1.93870549	      5.92530385	    -21.32539391	      0.17968023	      0.99721524	     -0.09816816	      0.79804253	     -6.18555341	    -12.10709032	      6.93391783	     10.14290221	     -2.45293675	      0.00000000	      6.20188006	     -2.99402420	     -9.89580804	     11.97666600	     10.70156383	     -4.56613035	      0.00000000	    -11.36442808	     -0.83826358	     -0.73447775	      3.91326792	    -13.79459113	     17.77750299	     19.94594035	    119.74817918	      4.26968141	    -11.03558143	     17.94585504	     21.75524407	    119.36841419
